<svg width="1024" height="276.742" viewBox="0 0 1024 276.742" xmlns="http://www.w3.org/2000/svg">
  <path d="M140.803 258.904c-15.404 2.705-31.079 3.516-47.294 5.676l-49.73-144.608v268.629l-65.026-0.014V108.509c0-1.959 0.063-3.923 0.2-5.887l64.826 0.014 47.294 141.932 49.128-141.932 64.826-0.014-0.2 5.887v280.077l-64.024-0.013z" fill="#e50914"/>
  <path d="M259.511 108.509l-0.2 5.887v280.077l-64.626-0.013V114.383c0-1.964 0.063-3.927 0.2-5.887l64.626-0.014z" fill="#b1060a"/>
  <path d="M259.511 108.509l-0.2 5.887v280.077l-64.626-0.013V114.383c0-1.964 0.063-3.927 0.2-5.887l64.626-0.014z" fill="#e50914"/>
  <path d="M277.516 114.396l32.21 94.344 35.808-94.344h64.826l-0.2 5.887v280.077l-64.626-0.013V208.348l-36.01 87.994h-0.4l-36.01-87.994v191.999l-64.626-0.013V114.383c0-1.964 0.063-3.927 0.2-5.887l64.626-0.014z" fill="#e50914"/>
</svg>